<svg width="455" height="118" viewBox="0 0 455 118" fill="none" xmlns="http://www.w3.org/2000/svg">
<path fill-rule="evenodd" clip-rule="evenodd" d="M446.085 2.2981H349.39C344.766 2.2981 340.834 6.02225 340.834 10.6147V109.517C340.834 114.109 343.411 117.833 348.035 117.833H444.73C449.363 117.833 454.3 114.109 454.3 109.517V10.6147C454.3 6.0319 450.709 2.2981 446.085 2.2981ZM384.06 46.3125H399.334V54.2432H399.504C401.835 49.9691 408.714 45.6275 417.214 45.6275C433.54 45.6275 438.088 54.4554 438.088 70.7992V101.335H421.876V73.8094C421.876 66.4962 419.005 60.0706 412.296 60.0706C404.147 60.0706 400.262 65.6858 400.262 74.9093V101.335H384.05V46.3125H384.06ZM357.046 101.335H373.258V46.3221H357.046V101.335ZM375.276 27.0646C375.276 32.7666 370.747 37.3784 365.147 37.3784C359.547 37.3784 355.018 32.7666 355.018 27.0646C355.018 21.3626 359.547 16.7509 365.147 16.7509C370.747 16.7509 375.276 21.3626 375.276 27.0646Z" fill="#2D6EAE"/>
<path d="M324.621 101.335H309.489V94.7843H309.328C305.965 98.7593 300.118 102.02 290.207 102.02C276.696 102.02 265.069 91.668 265.069 73.8866C265.069 56.9446 276.534 45.6275 290.719 45.6275C299.503 45.6275 304.951 48.8113 308.248 52.8635H308.409V18.8059H324.621V101.335ZM294.793 58.0059C285.527 58.0059 280.315 64.7306 280.315 73.684C280.315 82.6374 285.527 89.6419 294.793 89.6419C304.07 89.6419 309.499 82.811 309.499 73.684C309.499 64.2964 304.07 58.0059 294.793 58.0059Z" fill="#2B67B0"/>
<path d="M257.954 92.4687C254.126 97.5146 246.252 102.02 233.536 102.02C216.566 102.02 205.754 90.5777 205.754 72.6034C205.754 56.6359 215.542 45.6274 234.01 45.6274C249.956 45.6274 259.792 56.2885 259.792 75.0443C259.792 76.916 259.498 78.7781 259.498 78.7781H221.057L221.152 80.4762C222.213 85.223 225.738 91.0215 233.801 91.0215C240.851 91.0215 245.674 87.1623 247.862 84.1424L257.954 92.4687ZM244.186 68.3196C244.29 62.5115 240.112 56.6262 233.517 56.6262C225.671 56.6262 221.483 62.8685 221.047 68.3196H244.186Z" fill="#2B67B0"/>
<path d="M205.754 46.3125H186.842L167.929 68.3197V18.8059H151.726V101.335H167.929V73.8287L187.922 101.335H207.052L184.141 71.2527L205.754 46.3125Z" fill="#2B67B0"/>
<path d="M86.8872 46.3125H102.161V54.2432H102.332C104.663 49.9691 111.542 45.6274 120.041 45.6274C136.367 45.6274 140.915 56.1727 140.915 70.7992V101.335H124.703V73.8094C124.703 65.7147 121.832 60.0706 115.123 60.0706C106.975 60.0706 103.09 66.6409 103.09 74.9093V101.335H86.8777V46.3125H86.8872Z" fill="#2B67B0"/>
<path d="M59.8731 101.335H76.0852V46.3222H59.8731V101.335V101.335ZM67.9839 36.9636C73.3564 36.9636 77.7055 32.5255 77.7055 27.0647C77.7055 21.6039 73.3564 17.1658 67.9839 17.1658C62.6209 17.1658 58.2528 21.6039 58.2528 27.0647C58.2528 32.5255 62.6114 36.9636 67.9839 36.9636Z" fill="#2B67B0"/>
<path d="M16.647 18.8059H0.434814V101.335H49.0619V84.8275H16.647V18.8059Z" fill="#2B67B0"/>
</svg>
